<svg width="200" height="29" viewBox="0 0 200 29" fill="none" xmlns="http://www.w3.org/2000/svg">
<path d="M0 6.90039C0 6.00039 0.7 5.40039 1.5 5.40039C2.3 5.40039 3 6.10039 3 6.90039V18.6004L13.7 5.90039C14 5.60039 14.4 5.40039 14.8 5.40039C15.6 5.40039 16.2 6.00039 16.2 6.80039C16.2 7.10039 16.1 7.40039 15.9 7.70039L2.8 23.4004C2.4 23.9004 2 24.0004 1.5 24.0004C0.7 24.0004 0 23.3004 0 22.5004V6.90039Z" fill="black"/>
<path d="M28.8984 16.4008C28.8984 12.7008 31.3984 10.3008 34.7984 10.3008C35.4984 10.3008 36.0984 10.9008 36.0984 11.6008C36.0984 12.3008 35.4984 12.9008 34.7984 12.9008C33.0984 12.9008 31.7984 14.0008 31.7984 16.3008V22.5008C31.7984 23.3008 31.1984 24.0008 30.3984 24.0008C29.5984 24.0008 28.9984 23.3008 28.9984 22.5008V16.4008H28.8984Z" fill="black"/>
<path d="M48.0016 22.4012C46.9016 23.4012 45.3016 24.0012 43.7016 24.0012C40.0016 24.0012 37.1016 21.0012 37.1016 17.1012C37.1016 13.2012 39.9016 10.2012 43.7016 10.2012C45.4016 10.2012 46.9016 10.8012 48.0016 11.8012V11.6012C48.0016 10.8012 48.6016 10.2012 49.4016 10.2012C50.2016 10.2012 50.8016 10.8012 50.8016 11.6012V22.5012C50.8016 23.3012 50.2016 24.0012 49.4016 24.0012C48.6016 24.0012 48.0016 23.3012 48.0016 22.5012V22.4012ZM48.0016 17.2012V17.0012C47.9016 14.7012 46.2016 12.9012 44.0016 12.9012C41.8016 12.9012 40.0016 14.7012 40.0016 17.1012C40.0016 19.5012 41.8016 21.3012 44.0016 21.3012C46.2016 21.4012 48.0016 19.6012 48.0016 17.2012Z" fill="black"/>
<path d="M54.1992 16.3012C54.1992 12.6012 56.7992 10.2012 60.0992 10.2012C63.3992 10.2012 65.9992 12.5012 65.9992 16.3012V22.5012C65.9992 23.3012 65.2992 24.0012 64.5992 24.0012C63.7992 24.0012 63.1992 23.3012 63.1992 22.5012V16.2012C63.1992 14.0012 61.8992 12.9012 60.1992 12.9012C58.4992 12.9012 57.1992 14.0012 57.1992 16.2012V22.5012C57.1992 23.3012 56.5992 24.0012 55.7992 24.0012C54.9992 24.0012 54.3992 23.3012 54.3992 22.5012V16.3012H54.1992Z" fill="black"/>
<path d="M79.5992 22.4008C78.4992 23.4008 76.8992 24.0008 75.2992 24.0008C71.5992 24.0008 68.6992 21.0008 68.6992 17.1008C68.6992 13.2008 71.4992 10.2008 75.2992 10.2008C76.9992 10.2008 78.4992 10.8008 79.5992 11.8008V6.70078C79.5992 5.90078 80.1992 5.30078 80.9992 5.30078C81.7992 5.30078 82.3992 5.90078 82.3992 6.70078V22.5008C82.3992 23.3008 81.7992 24.0008 80.9992 24.0008C80.1992 24.0008 79.5992 23.3008 79.5992 22.5008V22.4008ZM79.5992 17.2008V17.0008C79.4992 14.7008 77.7992 12.9008 75.5992 12.9008C73.3992 12.9008 71.5992 14.7008 71.5992 17.1008C71.5992 19.5008 73.3992 21.3008 75.5992 21.3008C77.7992 21.3008 79.5992 19.6008 79.5992 17.2008Z" fill="black"/>
<path d="M96.0992 22.4012C94.9992 23.4012 93.3992 24.0012 91.7992 24.0012C88.0992 24.0012 85.1992 21.0012 85.1992 17.1012C85.1992 13.2012 87.9992 10.2012 91.7992 10.2012C93.4992 10.2012 94.9992 10.8012 96.0992 11.8012V11.6012C96.0992 10.8012 96.6992 10.2012 97.4992 10.2012C98.2992 10.2012 98.8992 10.8012 98.8992 11.6012V22.5012C98.8992 23.3012 98.2992 24.0012 97.4992 24.0012C96.6992 24.0012 96.0992 23.3012 96.0992 22.5012V22.4012ZM96.0992 17.2012V17.0012C95.9992 14.7012 94.2992 12.9012 92.0992 12.9012C89.8992 12.9012 88.0992 14.7012 88.0992 17.1012C88.0992 19.5012 89.8992 21.3012 92.0992 21.3012C94.2992 21.3012 96.0992 19.6012 96.0992 17.2012Z" fill="black"/>
<path d="M24.8 19.6004C24.3 19.6004 24 19.9004 23.6 20.3004C23 21.0004 22.1 21.5004 20.8 21.5004C18.5 21.5004 16.8 19.6004 16.8 17.3004C16.8 14.9004 18.6 13.1004 20.8 13.1004C21.4 13.1004 22 13.2004 22.5 13.5004C22.2 13.9004 21.8 14.3004 21.5 14.6004C19.9 16.2004 18.8 17.4004 18.7 18.1004C18.6 19.4004 19.9 20.0004 22.1 18.5004C24.8 16.6004 30.1 12.8004 26.4 1.90039C26.4 1.90039 26.4 4.50039 25.7 7.40039C25.4 8.70039 24.9 9.90039 24.2 11.1004C23.3 10.6004 22.2 10.3004 20.9 10.3004C16.9 10.3004 14 13.3004 14 17.2004C14 21.1004 17 24.1004 20.9 24.1004C23.1 24.1004 24.9 23.1004 25.9 21.9004C26.2 21.6004 26.3 21.2004 26.3 21.0004C26.2 20.2004 25.6 19.6004 24.8 19.6004Z" fill="#2DA77D"/>
<path d="M118.298 6.50078C118.098 6.10078 118.198 5.80078 118.198 5.80078C117.698 5.90078 114.098 6.00078 114.098 6.00078C114.298 6.10078 114.198 6.90078 114.198 6.90078C114.798 6.30078 118.498 6.80078 118.298 6.50078Z" fill="#E5214E"/>
<path d="M119.997 6.80061L120.097 7.00061C120.097 7.00061 120.097 6.60061 119.997 6.50061C119.897 6.40061 119.597 6.10061 119.597 6.00061C119.597 5.90061 119.397 5.60061 119.397 5.60061C119.297 5.40061 119.297 5.60061 119.297 5.60061C119.297 5.60061 119.397 6.20061 119.397 6.40061C119.497 6.60061 119.597 7.10061 119.597 7.20061C119.697 7.30061 119.597 6.90061 119.597 6.90061C119.597 6.90061 119.697 7.00061 119.697 7.10061C119.897 7.20061 119.997 6.80061 119.997 6.80061Z" fill="#E5214E"/>
<path d="M116.397 6.70026C115.097 6.60026 113.897 7.60026 113.897 8.80026C113.797 10.0003 114.897 11.0003 116.197 11.1003C117.497 11.2003 118.697 10.2003 118.697 9.00026C118.797 7.70026 117.697 6.70026 116.397 6.70026Z" fill="#E5214E"/>
<path d="M118.698 5L112.698 5.1L111.898 5.9L120.298 5.4L118.698 5Z" fill="#E5214E"/>
<path d="M135.398 23.9008L133.398 23.4008L128.698 15.7008L133.598 11.5008C133.398 10.5008 132.798 9.60078 131.998 9.00078C131.098 8.40078 130.098 8.10078 128.898 8.10078L118.898 8.00078V8.20078L119.198 8.50078C119.298 8.60078 119.298 8.60078 119.298 8.70078C119.298 8.80078 119.298 8.80078 119.298 8.90078V23.2008C119.298 23.3008 119.298 23.4008 119.298 23.4008C119.298 23.5008 119.198 23.5008 119.198 23.6008L118.898 23.9008V24.0008H121.798V23.8008L121.498 23.5008C121.398 23.4008 121.398 23.4008 121.398 23.3008C121.398 23.2008 121.398 23.2008 121.398 23.1008L122.098 10.0008L128.398 10.1008C129.198 10.1008 129.798 10.2008 130.198 10.5008C130.598 10.8008 130.798 11.1008 130.798 11.6008C130.798 11.8008 130.698 12.0008 130.598 12.2008C130.498 12.4008 130.198 12.6008 129.898 12.9008L125.398 16.1008C125.698 16.3008 125.798 16.2008 126.098 16.2008C126.398 16.2008 132.198 23.9008 132.498 23.9008H135.398H139.198V23.7008C138.998 23.7008 138.898 23.7008 138.798 23.6008C138.698 23.5008 138.698 23.5008 138.698 23.4008C138.698 23.3008 138.698 23.3008 138.698 23.2008C138.698 23.1008 138.698 23.1008 138.798 23.0008L146.698 11.6008L149.198 15.2008H145.598L143.998 17.7008L144.098 17.8008L144.498 17.5008C144.498 17.5008 144.598 17.4008 144.698 17.4008C144.798 17.4008 144.998 17.4008 145.198 17.4008H150.698L154.498 23.0008C154.498 23.0008 154.498 23.1008 154.598 23.1008C154.598 23.2008 154.598 23.2008 154.598 23.3008C154.598 23.4008 154.598 23.5008 154.498 23.5008C154.398 23.6008 154.298 23.6008 154.098 23.6008V23.8008H157.998L146.798 7.30078L135.398 23.9008Z" fill="#E5214E"/>
<path d="M175.8 21.5004C175.7 21.6004 175.6 21.6004 175.5 21.7004C175.4 21.7004 175.3 21.7004 175.2 21.7004H167.4C166.2 21.7004 165.3 21.6004 164.6 21.5004C163.9 21.3004 163.3 21.1004 162.8 20.7004C162 20.2004 161.4 19.5004 161.1 18.7004C160.7 17.9004 160.5 17.0004 160.5 16.0004C160.5 15.0004 160.7 14.1004 161.1 13.3004C161.5 12.5004 162.1 11.8004 162.9 11.2004C163.4 10.8004 164 10.6004 164.7 10.4004C165.4 10.2004 166.3 10.1004 167.4 10.1004H174.1C174.2 10.1004 174.3 10.1004 174.4 10.2004C174.5 10.3004 174.5 10.3004 174.5 10.4004V10.6004H174.6L176.3 7.90039H167.4C166.1 7.90039 165.2 8.00039 164.6 8.10039C164 8.20039 163.4 8.40039 162.8 8.60039C162.2 8.90039 161.6 9.20039 161.1 9.60039C160.6 10.0004 160.1 10.4004 159.7 10.9004C159.1 11.6004 158.7 12.4004 158.4 13.3004C158.1 14.2004 158 15.1004 158 16.1004C158 17.4004 158.3 18.5004 158.8 19.5004C159.3 20.5004 160.1 21.4004 161.1 22.1004C161.9 22.7004 162.8 23.1004 163.7 23.4004C164.6 23.7004 166 23.8004 167.6 23.8004H174.9L176.6 21.0004H176.4L175.8 21.5004Z" fill="#E5214E"/>
<path d="M195.8 21.5004C195.7 21.6004 195.6 21.6004 195.5 21.7004C195.4 21.7004 195.3 21.7004 195.2 21.7004H187.4C186.2 21.7004 185.3 21.6004 184.6 21.5004C183.9 21.3004 183.3 21.1004 182.8 20.7004C182 20.2004 181.4 19.5004 181.1 18.7004C180.7 17.9004 180.5 17.0004 180.5 16.0004C180.5 15.0004 180.7 14.1004 181.1 13.3004C181.5 12.5004 182.1 11.8004 182.9 11.2004C183.4 10.8004 184 10.6004 184.7 10.4004C185.4 10.2004 186.3 10.1004 187.4 10.1004H194.1C194.2 10.1004 194.3 10.1004 194.4 10.2004C194.5 10.3004 194.5 10.3004 194.5 10.4004V10.6004H194.6L196.3 7.90039H187.4C186.1 7.90039 185.2 8.00039 184.6 8.10039C184 8.20039 183.4 8.40039 182.8 8.60039C182.2 8.90039 181.6 9.20039 181.1 9.60039C180.6 10.0004 180.1 10.4004 179.7 10.9004C179.1 11.6004 178.7 12.4004 178.4 13.3004C178.1 14.2004 178 15.1004 178 16.1004C178 17.4004 178.3 18.5004 178.8 19.5004C179.3 20.5004 180.1 21.4004 181.1 22.1004C181.9 22.7004 182.8 23.1004 183.7 23.4004C184.6 23.7004 186 23.8004 187.6 23.8004H194.9L196.6 21.0004H196.4L195.8 21.5004Z" fill="#E5214E"/>
<path d="M186.399 16.7004C186.299 16.5004 185.999 16.4004 185.799 16.5004C185.799 16.5004 185.699 16.5004 185.699 16.6004L183.499 14.5004L182.199 14.4004L182.599 15.6004L185.399 16.9004C185.399 17.0004 185.399 17.0004 185.399 17.1004C185.499 17.4004 185.799 17.5004 186.099 17.5004C186.299 17.5004 186.399 17.3004 186.499 17.2004L194.199 16.2004L194.999 15.2004L193.599 14.7004L186.399 16.7004ZM186.099 17.3004C185.899 17.4004 185.699 17.3004 185.699 17.1004C185.599 16.9004 185.699 16.7004 185.899 16.7004C186.099 16.6004 186.299 16.7004 186.299 16.9004C186.299 17.1004 186.199 17.3004 186.099 17.3004Z" fill="#E5214E"/>
<path d="M199.599 16.2H197.999H197.699V15.9V15.8V15.5H197.999H199.599H199.999V15.8V15.9V16.2H199.599Z" fill="#E5214E"/>
<path d="M196.3 20.5008L195.6 19.8008L195.5 19.9008L196.2 20.6008L196.3 20.5008Z" fill="#E5214E"/>
<path d="M195.9 19.6004L196.6 20.3004L196.8 20.6004L196.5 20.8004H196.4L196.2 21.0004L196 20.8004L195.2 20.1004L195 19.8004L195.3 19.7004L195.4 19.6004L195.6 19.4004L195.9 19.6004Z" fill="#E5214E"/>
<path d="M196.3 20.5008L195.6 19.8008L195.5 19.9008L196.2 20.6008L196.3 20.5008Z" fill="#E5214E"/>
<path d="M195.6 19.8008L196.3 20.5008L196.2 20.6008L195.5 19.9008L195.6 19.8008ZM196.3 20.5008L195.6 19.8008H195.5L196.3 20.5008Z" fill="#E5214E"/>
<path d="M197.297 18.4008L197.897 18.7008L197.297 18.3008V18.4008Z" fill="#E5214E"/>
<path d="M197.697 19.0004L197.097 18.6004L196.797 18.5004L196.997 18.2004H197.097L197.297 17.9004L197.497 18.1004L198.097 18.4004L198.397 18.6004L198.197 18.8004V18.9004L197.997 19.1004L197.697 19.0004Z" fill="#E5214E"/>
<path d="M197.297 18.4008L197.897 18.7008L197.297 18.3008V18.4008Z" fill="#E5214E"/>
<path d="M197.897 18.7008L197.297 18.4008V18.3008L197.897 18.7008Z" fill="#E5214E"/>
<path d="M197.297 13.3996L197.397 13.4996L197.897 13.0996L197.297 13.3996Z" fill="#E5214E"/>
<path d="M197.097 13.6012H196.997L196.797 13.3012L197.097 13.2012L197.697 12.8012L197.997 12.7012L198.197 12.9012V13.0012L198.397 13.2012L198.097 13.4012L197.597 13.7012L197.297 13.9012L197.097 13.6012Z" fill="#E5214E"/>
<path d="M197.297 13.3996L197.397 13.4996L197.897 13.0996L197.297 13.3996Z" fill="#E5214E"/>
<path d="M197.398 13.4996L197.898 13.0996V13.1996L197.398 13.4996Z" fill="#E5214E"/>
<path d="M196.098 11L195.398 11.8L195.498 11.9L196.198 11.1L196.098 11Z" fill="#E5214E"/>
<path d="M195.2 11.5996L195.8 10.8996L196 10.5996L196.3 10.7996L196.4 10.8996L196.7 10.9996L196.5 11.2996L195.8 11.9996L195.6 12.2996L195.3 12.0996L195.2 11.9996L195 11.7996L195.2 11.5996Z" fill="#E5214E"/>
<path d="M196.098 11L195.398 11.8L195.498 11.9L196.198 11.1L196.098 11Z" fill="#E5214E"/>
<path d="M195.398 11.7996L196.098 11.0996L196.198 11.1996L195.498 11.8996L195.398 11.7996ZM196.098 11.0996L195.498 11.7996H195.598L196.098 11.0996Z" fill="#E5214E"/>
<path d="M193.599 3.40039H194.099C194.399 3.40039 194.499 3.40039 194.599 3.30039C194.699 3.20039 194.699 3.10039 194.699 3.00039C194.699 2.90039 194.699 2.80039 194.599 2.80039C194.599 2.70039 194.499 2.70039 194.399 2.70039C194.299 2.70039 194.199 2.70039 193.899 2.70039H193.399V3.40039H193.599ZM193.099 5.00039V2.20039H194.099C194.399 2.20039 194.699 2.20039 194.799 2.30039C194.899 2.40039 195.099 2.40039 195.199 2.60039C195.299 2.70039 195.299 2.90039 195.299 3.00039C195.299 3.20039 195.199 3.40039 195.099 3.50039C194.999 3.70039 194.799 3.70039 194.499 3.80039C194.599 3.80039 194.699 3.90039 194.699 3.90039C194.799 4.00039 194.899 4.20039 195.099 4.50039L195.399 5.00039H194.899L194.699 4.60039C194.499 4.30039 194.299 4.00039 194.199 3.90039C194.099 3.80039 193.999 3.80039 193.799 3.80039H193.499V5.00039H193.099ZM194.299 1.40039C193.899 1.40039 193.599 1.50039 193.199 1.70039C192.899 1.90039 192.599 2.20039 192.399 2.50039C192.199 2.80039 192.099 3.20039 192.099 3.60039C192.099 4.00039 192.199 4.30039 192.399 4.70039C192.599 5.00039 192.899 5.30039 193.199 5.50039C193.499 5.70039 193.899 5.80039 194.299 5.80039C194.699 5.80039 194.999 5.70039 195.399 5.50039C195.699 5.30039 195.999 5.00039 196.199 4.70039C196.399 4.40039 196.499 4.00039 196.499 3.60039C196.499 3.20039 196.399 2.90039 196.199 2.50039C195.999 2.20039 195.699 1.90039 195.399 1.70039C194.999 1.50039 194.599 1.40039 194.299 1.40039ZM194.299 0.900391C194.699 0.900391 195.199 1.00039 195.599 1.20039C195.999 1.40039 196.299 1.70039 196.599 2.20039C196.799 2.60039 196.899 3.10039 196.899 3.50039C196.899 3.90039 196.799 4.40039 196.599 4.80039C196.399 5.20039 196.099 5.50039 195.599 5.80039C195.199 6.00039 194.799 6.10039 194.299 6.10039C193.899 6.10039 193.399 6.00039 192.999 5.80039C192.599 5.60039 192.299 5.30039 191.999 4.80039C191.799 4.40039 191.699 4.00039 191.699 3.50039C191.699 3.00039 191.799 2.60039 191.999 2.20039C192.199 1.80039 192.599 1.50039 192.999 1.20039C193.399 1.00039 193.799 0.900391 194.299 0.900391Z" fill="#E5214E"/>
<path d="M106.498 2.59961H105.898V28.0996H106.498V2.59961Z" fill="#727272"/>
</svg>
